<svg width="12" height="12" viewBox="0 0 12 12" fill="none" xmlns="http://www.w3.org/2000/svg">
<g opacity="0.6" clip-path="url(#clip0_1963_65700)">
<path d="M7.92 6C7.92 6.37974 7.80743 6.75095 7.59645 7.0667C7.38545 7.38244 7.08559 7.62855 6.73475 7.77382C6.38392 7.91918 5.99787 7.9572 5.62543 7.8831C5.25299 7.809 4.91087 7.62615 4.64236 7.35764C4.37384 7.08913 4.19098 6.74701 4.11689 6.37457C4.04281 6.00213 4.08083 5.61608 4.22615 5.26525C4.37147 4.91441 4.61756 4.61455 4.93331 4.40358C5.24905 4.19261 5.62026 4.08 6 4.08C6.50904 4.08059 6.99706 4.28305 7.357 4.64299C7.71697 5.00294 7.9194 5.49096 7.92 6ZM12 3.36V8.64C11.999 9.53085 11.6447 10.3849 11.0148 11.0148C10.3849 11.6447 9.53085 11.999 8.64 12H3.36C2.46918 11.999 1.61514 11.6447 0.985237 11.0148C0.355332 10.3849 0.00100888 9.53085 0 8.64V3.36C0.00100888 2.46918 0.355332 1.61514 0.985237 0.985237C1.61514 0.355332 2.46918 0.00100888 3.36 0H8.64C9.53085 0.00100888 10.3849 0.355332 11.0148 0.985237C11.6447 1.61514 11.999 2.46918 12 3.36ZM8.88 6C8.88 5.43039 8.7111 4.87357 8.3946 4.39996C8.07817 3.92635 7.6284 3.5572 7.10212 3.33923C6.57588 3.12125 5.99681 3.06421 5.43814 3.17533C4.87948 3.28646 4.3663 3.56076 3.96353 3.96353C3.56076 4.3663 3.28646 4.87948 3.17533 5.43814C3.06421 5.99681 3.12125 6.57588 3.33923 7.10212C3.5572 7.6284 3.92635 8.07817 4.39996 8.3946C4.87357 8.7111 5.43039 8.88 6 8.88C6.76356 8.8791 7.4956 8.57543 8.0355 8.0355C8.57543 7.4956 8.8791 6.76356 8.88 6ZM9.84 2.88C9.84 2.7376 9.79778 2.59839 9.71865 2.47999C9.63953 2.36158 9.5271 2.2693 9.39555 2.21481C9.264 2.16032 9.11917 2.14605 8.97952 2.17384C8.83988 2.20162 8.71155 2.27019 8.6109 2.37088C8.51017 2.47158 8.44162 2.59987 8.4138 2.73953C8.38605 2.8792 8.4003 3.02397 8.45482 3.15553C8.50927 3.28709 8.6016 3.39954 8.72003 3.47866C8.83838 3.55777 8.97758 3.6 9.12 3.6C9.31095 3.6 9.4941 3.52414 9.6291 3.38911C9.76418 3.25409 9.84 3.07096 9.84 2.88Z" fill="white"/>
</g>
<defs>
<clipPath id="clip0_1963_65700">
<rect width="12" height="12" fill="white"/>
</clipPath>
</defs>
</svg>
