<svg width="18" height="18" viewBox="0 0 18 18" fill="none" xmlns="http://www.w3.org/2000/svg">
<path d="M11.6297 10.3392C11.3237 10.0351 10.8568 9.97106 10.4864 10.1632L10.1161 9.79496C10.422 9.34673 10.422 8.75442 10.1161 8.29017L10.5347 7.87396C10.6796 7.954 10.8407 7.98602 11.0017 7.98602C11.5491 7.98602 12 7.53778 12 6.9935C12 6.44921 11.5491 6.00098 11.0017 6.00098C10.4542 6.00098 10.0034 6.44921 10.0034 6.9935C10.0034 7.15358 10.0517 7.31366 10.1161 7.45774L9.69743 7.87396C9.24658 7.5698 8.65081 7.5698 8.18385 7.87396L7.82961 7.53778C8.03893 7.16959 7.95842 6.70535 7.65249 6.40119C7.26604 6.01698 6.65417 6.03299 6.28383 6.40119C5.89738 6.78539 5.91348 7.39371 6.28383 7.7619C6.50925 7.98602 6.84739 8.09807 7.16943 8.01803C7.26604 8.00202 7.34655 7.97001 7.42706 7.92198L7.79741 8.29017C7.49147 8.73841 7.49147 9.33072 7.79741 9.79496L7.42706 10.1792C7.05672 9.97106 6.58976 10.0511 6.28383 10.3553C5.91348 10.7395 5.91348 11.3478 6.28383 11.716C6.65417 12.0842 7.26604 12.0842 7.65249 11.716C7.95842 11.4118 8.02283 10.9476 7.82961 10.5794L8.19995 10.2112C8.65081 10.5153 9.24658 10.5153 9.71353 10.2112L10.0839 10.5794C9.82624 11.0436 10.0034 11.6359 10.4864 11.8921C10.8568 12.0842 11.3237 12.0201 11.6297 11.716C12 11.3318 12 10.7234 11.6297 10.3392ZM11.0017 6.60929C11.2432 6.60929 11.4364 6.8014 11.4364 7.04152C11.4364 7.28165 11.2432 7.47375 11.0017 7.47375C10.7602 7.47375 10.5669 7.28165 10.5669 7.04152C10.5669 6.8014 10.7602 6.60929 11.0017 6.60929ZM7.05672 7.48976C6.83129 7.53778 6.62197 7.39371 6.57366 7.1856C6.52536 6.97749 6.67027 6.75337 6.8796 6.70534C7.10502 6.65732 7.31435 6.8014 7.36265 7.0095C7.42706 7.21761 7.28215 7.44173 7.05672 7.48976ZM7.26604 11.3158C7.10502 11.4758 6.84739 11.4758 6.68638 11.3158C6.52536 11.1557 6.52536 10.8995 6.68638 10.7395C6.84739 10.5794 7.08892 10.5794 7.24994 10.7395C7.42706 10.8835 7.42706 11.1557 7.26604 11.3158ZM8.13555 9.04257C8.15165 8.61034 8.52199 8.24215 8.95674 8.24215C9.4076 8.24215 9.77794 8.61034 9.77794 9.05858C9.77794 9.4908 9.4237 9.875 8.95674 9.875C8.48979 9.875 8.13555 9.4908 8.13555 9.04257ZM10.9373 11.4278C10.7118 11.4278 10.5347 11.2517 10.5347 11.0276C10.5347 10.8035 10.7118 10.6274 10.9373 10.6274C11.1627 10.6274 11.3398 10.8035 11.3398 11.0276C11.3398 11.2517 11.1627 11.4278 10.9373 11.4278Z" fill="white" stroke="white" stroke-width="0.3"/>
<ellipse cx="12.5" cy="9.00097" rx="0.75" ry="0.749996" fill="white"/>
<path d="M17 9.00102C17 4.60695 13.4335 1.04047 9.05911 1.00106C4.62562 0.981353 1 4.56754 1 9.00102C1 13.4148 4.60591 17.001 9 17.001C13.3941 17.001 17 13.4148 17 9.00102ZM6.26108 14.4197C7.00985 14.7941 7.81773 15.0108 8.64532 15.0502V16.2916C7.60099 16.2522 6.57636 15.9764 5.63054 15.4837L6.26108 14.4197ZM9.35468 15.0502C10.1823 15.0108 10.9901 14.7941 11.7389 14.4197L12.3695 15.5034C11.4433 15.9961 10.4187 16.2719 9.37438 16.3113L9.35468 15.0502ZM9 14.3803C6.00493 14.3803 3.62069 11.9567 3.62069 9.00102C3.62069 6.02566 6.04433 3.60203 9.03941 3.62173C11.9754 3.64144 14.3793 6.06507 14.3596 9.00102C14.3793 12.0355 11.9163 14.3803 9 14.3803ZM1.70936 9.33599H2.95074C2.99015 10.1636 3.2069 10.9715 3.58128 11.7202L2.51724 12.3508C2.02463 11.4247 1.74877 10.4 1.70936 9.33599ZM2.51724 5.65128L3.60099 6.26211C3.2266 7.01088 3.00985 7.81876 2.97044 8.64634H1.70936C1.74877 7.60201 2.02463 6.57738 2.51724 5.65128ZM11.7389 3.58233C10.9901 3.20794 10.1823 2.9912 9.35468 2.95179V1.71041C10.399 1.74982 11.4236 2.02568 12.3498 2.51829L11.7389 3.58233ZM8.66503 2.95179C7.83744 2.9912 7.02956 3.20794 6.28079 3.58233L5.65025 2.51829C6.57635 2.02568 7.60099 1.74982 8.64532 1.71041L8.66503 2.95179ZM16.2906 8.64634H15.0493C15.0099 7.81876 14.7931 7.01088 14.4187 6.26211L15.5025 5.63158C15.9754 6.57738 16.2512 7.60201 16.2906 8.64634ZM15.0493 9.33599H16.2906C16.2512 10.3803 15.9754 11.4049 15.4828 12.3508L14.399 11.7399C14.7931 10.9912 15.0099 10.1833 15.0493 9.33599ZM15.1478 5.06015L14.0837 5.67098C13.6305 4.98133 13.0394 4.3902 12.33 3.9173L12.9409 2.83356C13.8276 3.42469 14.5764 4.17346 15.1478 5.06015ZM5.05911 2.85326L5.66995 3.937C4.9803 4.3902 4.38916 4.98133 3.91626 5.69069L2.85222 5.06015C3.42365 4.17346 4.17241 3.42469 5.05911 2.85326ZM2.85222 12.9419L3.93596 12.331C4.38916 13.0207 4.9803 13.6118 5.68966 14.0847L5.05911 15.1488C4.17241 14.5773 3.42365 13.8286 2.85222 12.9419ZM12.9409 15.1488L12.33 14.0847C13.0197 13.6315 13.6108 13.0404 14.0837 12.331L15.1478 12.9419C14.5764 13.8286 13.8276 14.5773 12.9409 15.1488Z" fill="white" stroke="white" stroke-width="0.5"/>
</svg>
