<?xml version="1.0" encoding="utf-8"?>
<!-- Generator: Adobe Illustrator 26.4.1, SVG Export Plug-In . SVG Version: 6.00 Build 0)  -->
<svg version="1.1" id="Layer_1" xmlns="http://www.w3.org/2000/svg" xmlns:xlink="http://www.w3.org/1999/xlink" x="0px" y="0px"
	 viewBox="0 0 1080 1080" style="enable-background:new 0 0 1080 1080;" xml:space="preserve">
<style type="text/css">
	.st0{fill:#FFFFFF;}
</style>
<g>
	<path class="st0" d="M436.96,608.03c2.88,0,5.76,0.52,8.49,1.55l117.07,46.66l-29.54,38.52c-9.19,9.22-9.19,24.16,0,33.38
		c4.61,4.61,10.66,6.92,16.7,6.92c6.04,0,12.09-2.31,16.7-6.92l44.37-53.34l48.18,18.56l-29.54,38.53c-9.23,9.22-9.23,24.16,0,33.38
		c4.61,4.61,10.66,6.92,16.7,6.92s12.09-2.31,16.7-6.92l44.37-53.35l48.18,18.56l-29.54,38.53c-9.23,9.22-9.23,24.16,0,33.38
		c4.61,4.61,10.66,6.91,16.7,6.91c6.04,0,12.09-2.3,16.7-6.91l44.37-53.35l91.97,34.82c30.02,14.91,47.38,42.99,47.38,74.23
		c0,45.2-38.35,81.97-83.55,81.97h-12.45v15.96c0,13.04-10.56,23.6-23.61,23.6c-13.05,0-23.61-10.56-23.61-23.6v-15.96
		c-16.8,0-32.96-0.92-48.63-2.56l-45.75-0.12v18.64c0,13.04-10.59,23.6-23.61,23.6c-13.05,0-23.61-10.56-23.61-23.6v-18.76
		l-94.43-0.24v19c0,13.04-10.55,23.6-23.61,23.6c-13.05,0-23.61-10.56-23.61-23.6v-15.96H422v15.96c0,13.04-10.56,23.6-23.61,23.6
		c-13.05,0-23.61-10.56-23.61-23.6v-15.96H280.4v15.96c0,13.04-10.55,23.6-23.61,23.6c-13.05,0-23.61-10.56-23.61-23.6v-15.96
		h-23.61c-6.28,0-13.86-2.49-18.25-6.91c-24.05-24.04-40.41-54.71-48.38-87.5c-6.94-22.52-5.76-47.21-5.76-47.21v-8
		c0-45.04,11.48-89.74,33.24-129.25c3.83-6.94,10.88-11.5,18.77-12.15c0.7-0.07,1.4-0.1,2.12-0.1c7.36,0,15.51,3.4,19.96,9.11
		c22.76,29.21,56.56,45.97,92.74,45.97c49.47,0,93.95-33.2,110.71-80.29c2.14-6,6.61-10.88,12.37-13.53
		C430.23,608.75,433.59,608.03,436.96,608.03 M436.96,560.93C436.96,560.93,436.96,560.93,436.96,560.93
		C436.96,560.93,436.96,560.93,436.96,560.93c-10.25,0-20.17,2.16-29.49,6.42c-17.28,7.95-30.78,22.72-37.14,40.55
		c-10.27,28.86-37.54,49-66.33,49c-21.55,0-41.81-10.14-55.58-27.82c-13.06-16.8-34.96-27.26-57.11-27.26c-2.2,0-4.37,0.1-6.51,0.3
		c-23.15,1.89-44.15,15.48-55.63,36.3c-25.58,46.47-39.09,99.02-39.09,152v7.12c-0.22,6.89-0.5,33.88,7.42,60.54
		c10.39,41.7,31.3,79.15,60.53,108.37c8.98,9.05,21.16,15.59,34.33,18.69c11.12,24.5,35.82,41.58,64.43,41.58
		c27.82,0,51.94-16.15,63.48-39.57h14.65c11.54,23.42,35.66,39.57,63.48,39.57s51.94-16.15,63.48-39.57h14.69
		c11.54,23.42,35.66,39.57,63.48,39.57c28.97,0,53.92-17.51,64.84-42.49l11.98,0.03c10.92,24.97,35.87,42.47,64.83,42.47
		c28.83,0,53.68-17.34,64.68-42.14l2.22,0.01c3.48,0.35,6.96,0.66,10.45,0.94c11.2,24.29,35.79,41.19,64.25,41.19
		c29.07,0,54.09-17.62,64.95-42.75C946.42,970.96,990,919.46,990,858.09c0-49.27-28.17-93.88-73.52-116.41l-2.1-1.04l-2.19-0.83
		l-91.97-34.82l-2.19-0.83l-45.78-17.63l-48.18-18.56l-31.54-12.15l-0.01,0.01l-16.67-6.42l-48.18-18.56l-31.54-12.15l-0.15,0.18
		l-16.03-6.39l-117.07-46.66C454.03,562.48,445.57,560.93,436.96,560.93L436.96,560.93L436.96,560.93z"/>
	<path class="st0" d="M643.04,100.37c3.36,0,6.73,0.71,9.88,2.15c5.76,2.65,10.23,7.54,12.37,13.53
		c16.76,47.09,61.23,80.29,110.7,80.29c36.18,0,69.98-16.76,92.74-45.97c4.44-5.71,12.6-9.11,19.96-9.11c0.71,0,1.42,0.03,2.11,0.1
		c7.89,0.65,14.94,5.21,18.77,12.15c21.75,39.51,33.24,84.21,33.24,129.25v8c0,0,1.18,24.69-5.76,47.21
		c-7.98,32.8-24.33,63.46-48.38,87.5c-4.39,4.42-11.96,6.91-18.25,6.91h-23.61v15.96c0,13.05-10.55,23.6-23.61,23.6
		c-13.05,0-23.61-10.56-23.61-23.6V432.4h-94.39v15.96c0,13.05-10.55,23.6-23.61,23.6c-13.05,0-23.61-10.56-23.61-23.6V432.4h-94.43
		v15.96c0,13.05-10.56,23.6-23.61,23.6c-13.05,0-23.61-10.56-23.61-23.6v-19l-94.43,0.24v18.76c0,13.05-10.55,23.6-23.61,23.6
		c-13.01,0-23.61-10.56-23.61-23.6v-18.64l-45.77,0.12c-15.66,1.64-31.82,2.56-48.62,2.56v15.96c0,13.05-10.56,23.6-23.61,23.6
		c-13.05,0-23.61-10.56-23.61-23.6V432.4h-12.45c-45.2,0-83.55-36.76-83.55-81.97c0-31.23,17.37-59.31,47.38-74.23l91.97-34.82
		l44.37,53.35c4.61,4.61,10.66,6.91,16.7,6.91c6.04,0,12.09-2.3,16.7-6.91c9.23-9.22,9.23-24.16,0-33.38l-29.54-38.53l48.18-18.56
		l44.37,53.36c4.61,4.61,10.65,6.92,16.7,6.92c6.04,0,12.09-2.31,16.7-6.92c9.23-9.22,9.23-24.16,0-33.38l-29.54-38.53l48.18-18.56
		l44.37,53.34c4.61,4.61,10.65,6.91,16.7,6.91c6.04,0,12.08-2.3,16.7-6.91c9.19-9.22,9.19-24.16,0-33.38l-29.54-38.52l117.07-46.66
		C637.28,100.89,640.16,100.37,643.04,100.37 M643.04,53.27c-8.62,0-17.08,1.55-25.15,4.6l-117.85,46.96l-16.03,6.39l-0.15-0.18
		l-31.54,12.15l-48.18,18.56l-16.67,6.42l-0.01-0.01l-31.54,12.15l-48.18,18.56l-45.63,17.58l-2.34,0.88l-91.97,34.82l-2.19,0.83
		l-2.1,1.04C118.17,256.56,90,301.16,90,350.43c0,61.37,43.58,112.87,101.77,125.9c10.86,25.12,35.88,42.75,64.95,42.75
		c28.46,0,53.05-16.9,64.25-41.19c3.48-0.28,6.96-0.59,10.44-0.94l2.23-0.01c11,24.8,35.85,42.14,64.68,42.14
		c28.96,0,53.9-17.49,64.83-42.47l11.98-0.03c10.92,24.99,35.87,42.5,64.84,42.5c27.82,0,51.94-16.15,63.48-39.57h14.69
		c11.54,23.41,35.66,39.57,63.48,39.57c27.82,0,51.94-16.15,63.48-39.57h14.65c11.54,23.41,35.66,39.57,63.48,39.57
		c28.61,0,53.31-17.08,64.43-41.59c13.18-3.11,25.39-9.67,34.46-18.82c29.1-29.09,50.01-66.54,60.39-108.24
		c7.92-26.66,7.65-53.65,7.42-60.54v-7.12c0-52.98-13.51-105.53-39.08-151.97c-11.5-20.85-32.49-34.44-56.18-36.38
		c-1.61-0.15-3.77-0.26-5.96-0.26c-22.17,0-44.06,10.46-57.16,27.3c-13.75,17.64-34.01,27.78-55.56,27.78
		c-28.79,0-56.06-20.14-66.32-48.98c-6.36-17.86-19.87-32.62-37.06-40.53C663.23,55.43,653.3,53.27,643.04,53.27L643.04,53.27z"/>
</g>
</svg>
