<svg width="17" height="16" viewBox="0 0 17 16" fill="none" xmlns="http://www.w3.org/2000/svg">
<g clip-path="url(#clip0_1770_236428)">
<path d="M13.4187 16.0011H10.0854C9.20165 16.0001 8.35442 15.6485 7.72953 15.0236C7.10464 14.3988 6.75311 13.5515 6.75205 12.6678V9.33446C6.75311 8.45073 7.10464 7.60349 7.72953 6.9786C8.35442 6.35371 9.20165 6.00218 10.0854 6.00112H13.4187C14.3024 6.00218 15.1497 6.35371 15.7746 6.9786C16.3995 7.60349 16.751 8.45073 16.7521 9.33446V12.6678C16.751 13.5515 16.3995 14.3988 15.7746 15.0236C15.1497 15.6485 14.3024 16.0001 13.4187 16.0011ZM10.0854 7.33446C9.55495 7.33446 9.04624 7.54517 8.67117 7.92024C8.2961 8.29531 8.08538 8.80402 8.08538 9.33446V12.6678C8.08538 13.1982 8.2961 13.7069 8.67117 14.082C9.04624 14.4571 9.55495 14.6678 10.0854 14.6678H13.4187C13.9492 14.6678 14.4579 14.4571 14.8329 14.082C15.208 13.7069 15.4187 13.1982 15.4187 12.6678V9.33446C15.4187 8.80402 15.208 8.29531 14.8329 7.92024C14.4579 7.54517 13.9492 7.33446 13.4187 7.33446H10.0854ZM10.0854 8.66779C9.95353 8.66779 9.82464 8.70689 9.715 8.78014C9.60537 8.8534 9.51992 8.95752 9.46946 9.07933C9.41901 9.20115 9.4058 9.3352 9.43153 9.46452C9.45725 9.59384 9.52074 9.71263 9.61398 9.80586C9.70721 9.8991 9.826 9.96259 9.95532 9.98831C10.0846 10.014 10.2187 10.0008 10.3405 9.95038C10.4623 9.89992 10.5664 9.81447 10.6397 9.70484C10.713 9.5952 10.7521 9.46631 10.7521 9.33446C10.7521 9.15765 10.6818 8.98808 10.5568 8.86305C10.4318 8.73803 10.2622 8.66779 10.0854 8.66779ZM13.4187 12.0011C13.2869 12.0011 13.158 12.0402 13.0483 12.1135C12.9387 12.1867 12.8533 12.2909 12.8028 12.4127C12.7523 12.5345 12.7391 12.6685 12.7649 12.7979C12.7906 12.9272 12.8541 13.046 12.9473 13.1392C13.0405 13.2324 13.1593 13.2959 13.2887 13.3216C13.418 13.3474 13.552 13.3342 13.6738 13.2837C13.7957 13.2333 13.8998 13.1478 13.973 13.0382C14.0463 12.9285 14.0854 12.7996 14.0854 12.6678C14.0854 12.491 14.0151 12.3214 13.8901 12.1964C13.7651 12.0714 13.5955 12.0011 13.4187 12.0011ZM6.75205 4.66779C6.8839 4.66779 7.0128 4.62869 7.12243 4.55543C7.23206 4.48218 7.31751 4.37806 7.36797 4.25624C7.41843 4.13443 7.43163 4.00038 7.40591 3.87106C7.38018 3.74174 7.31669 3.62295 7.22345 3.52972C7.13022 3.43648 7.01143 3.37299 6.88211 3.34726C6.75279 3.32154 6.61874 3.33474 6.49693 3.3852C6.37511 3.43566 6.27099 3.52111 6.19774 3.63074C6.12448 3.74037 6.08538 3.86927 6.08538 4.00112C6.08538 4.17793 6.15562 4.3475 6.28064 4.47253C6.40567 4.59755 6.57524 4.66779 6.75205 4.66779ZM5.41872 6.00112C5.41872 5.86927 5.37962 5.74037 5.30636 5.63074C5.23311 5.52111 5.12899 5.43566 5.00717 5.3852C4.88535 5.33474 4.75131 5.32154 4.62199 5.34726C4.49267 5.37299 4.37388 5.43648 4.28064 5.52972C4.18741 5.62295 4.12391 5.74174 4.09819 5.87106C4.07247 6.00038 4.08567 6.13443 4.13613 6.25624C4.18659 6.37806 4.27203 6.48218 4.38167 6.55544C4.4913 6.62869 4.62019 6.66779 4.75205 6.66779C4.92886 6.66779 5.09843 6.59755 5.22345 6.47253C5.34848 6.3475 5.41872 6.17793 5.41872 6.00112ZM5.27205 10.5518C5.38255 10.4139 5.4338 10.2378 5.41455 10.0622C5.3953 9.88658 5.30712 9.72578 5.16938 9.61512C5.11091 9.5675 5.05506 9.51676 5.00205 9.46312L2.66138 7.09046C2.2896 6.71239 2.08287 6.20235 2.0865 5.67213C2.09012 5.1419 2.3038 4.63474 2.68071 4.26179L5.05405 1.92112C5.42739 1.5509 5.93227 1.34377 6.45805 1.34512H6.47272C6.73542 1.34623 6.9953 1.39942 7.23733 1.50161C7.47935 1.60379 7.69871 1.75295 7.88272 1.94045L10.2187 4.31112C10.2567 4.34979 10.2927 4.38912 10.3274 4.43045C10.4412 4.56633 10.6044 4.65141 10.781 4.66698C10.9576 4.68255 11.1332 4.62732 11.2691 4.51345C11.4049 4.39959 11.49 4.23641 11.5056 4.05981C11.5211 3.88321 11.4659 3.70767 11.3521 3.57179C11.2967 3.50512 11.2387 3.44245 11.1747 3.37712L8.83205 1.00445C8.52467 0.692777 8.15891 0.444697 7.75566 0.274376C7.35241 0.104056 6.91955 0.0148322 6.48181 0.0117988C6.04408 0.0087654 5.61003 0.0919821 5.20445 0.256697C4.79888 0.421413 4.42971 0.6644 4.11805 0.971787L1.74471 3.31245C1.11639 3.93384 0.76011 4.77903 0.753987 5.6627C0.747863 6.54638 1.0924 7.39642 1.71205 8.02646L4.05271 10.4011C4.14168 10.4912 4.23584 10.576 4.33471 10.6551C4.40296 10.71 4.48133 10.7509 4.56537 10.7754C4.64941 10.8 4.73747 10.8077 4.82451 10.7983C4.91155 10.7888 4.99587 10.7623 5.07266 10.7202C5.14945 10.6781 5.2172 10.6214 5.27205 10.5531V10.5518Z" fill="white"/>
</g>
<defs>
<clipPath id="clip0_1770_236428">
<rect width="16" height="16" fill="white" transform="translate(0.751953 0.000976562)"/>
</clipPath>
</defs>
</svg>
