<svg width="25" height="17" viewBox="0 0 25 17" fill="none" xmlns="http://www.w3.org/2000/svg">
  <path d="M10.9434 7.48207V6.71694C10.9434 5.7295 11.5641 5.33142 12.3228 5.82256L12.9113 6.20512L13.4998 6.58769C14.2585 7.07883 14.2585 7.88532 13.4998 8.37646L12.9113 8.75902L12.3228 9.14159C11.5641 9.63273 10.9434 9.22948 10.9434 8.24721V7.48207Z" stroke="white" stroke-width="1.5" stroke-miterlimit="10" stroke-linecap="round" stroke-linejoin="round"/>
  <path fill-rule="evenodd" clip-rule="evenodd" d="M20.261 0.766016C20.261 0.156561 20.903 -0.224485 21.3869 0.146101C23.5611 1.81143 25 4.7074 25 8.0012C25 11.295 23.5611 14.191 21.3869 15.8563C20.903 16.2269 20.261 15.8458 20.261 15.2364C20.261 14.9707 20.3929 14.7244 20.6004 14.5583C22.3022 13.196 23.5 10.8534 23.5 8.0012C23.5 5.14903 22.3022 2.80641 20.6004 1.44407C20.3929 1.27802 20.261 1.03172 20.261 0.766016Z" fill="white"/>
  <path fill-rule="evenodd" clip-rule="evenodd" d="M17.187 3.74915C17.187 3.10332 17.866 2.71023 18.335 3.15426C19.5094 4.26627 20.2617 5.97703 20.2617 7.89579C20.2617 9.81454 19.5094 11.5253 18.335 12.6373C17.866 13.0813 17.187 12.6883 17.187 12.0424C17.187 11.7914 17.3002 11.5563 17.4734 11.3746C18.2347 10.5754 18.7617 9.37401 18.7617 7.89579C18.7617 6.41756 18.2347 5.21613 17.4734 4.41701C17.3002 4.23523 17.187 4.00021 17.187 3.74915Z" fill="white"/>
  <path fill-rule="evenodd" clip-rule="evenodd" d="M4.73901 0.766016C4.73901 0.156561 4.09699 -0.224485 3.61315 0.146101C1.43888 1.81143 0 4.7074 0 8.0012C0 11.295 1.43888 14.191 3.61315 15.8563C4.09699 16.2269 4.73901 15.8458 4.73901 15.2364C4.73901 14.9707 4.60706 14.7244 4.39963 14.5583C2.69783 13.196 1.5 10.8534 1.5 8.0012C1.5 5.14903 2.69783 2.80641 4.39963 1.44407C4.60706 1.27802 4.73901 1.03172 4.73901 0.766016Z" fill="white"/>
  <path fill-rule="evenodd" clip-rule="evenodd" d="M7.81299 3.74915C7.81299 3.10332 7.13396 2.71023 6.665 3.15426C5.49055 4.26627 4.73828 5.97703 4.73828 7.89579C4.73828 9.81454 5.49055 11.5253 6.665 12.6373C7.13396 13.0813 7.81299 12.6883 7.81299 12.0424C7.81299 11.7914 7.69981 11.5563 7.52662 11.3746C6.76528 10.5754 6.23828 9.37401 6.23828 7.89579C6.23828 6.41756 6.76528 5.21613 7.52662 4.41701C7.69981 4.23523 7.81299 4.00021 7.81299 3.74915Z" fill="white"/>
</svg>
