<svg width="34" height="34" viewBox="0 0 34 34" fill="none" xmlns="http://www.w3.org/2000/svg">
<path d="M11.6875 19.9313C11.5562 19.9314 11.4263 19.9649 11.312 20.0295C11.1979 20.094 11.1025 20.1879 11.0388 20.303C11.018 20.3392 10.8418 20.6386 10.5418 20.9359C10.2207 21.2543 9.78948 21.5393 9.28125 21.542C8.80008 21.5122 8.35522 21.3103 8.04093 20.9858C7.72576 20.6604 7.56718 20.2386 7.59234 19.8128L7.59277 19.8054V19.798C7.59277 19.2127 7.97451 18.4162 8.60668 17.569C9.22954 16.7343 10.0617 15.8948 10.8896 15.2314C11.1086 15.0574 11.392 14.9593 11.6882 14.9593C11.9844 14.9593 12.2678 15.0574 12.4868 15.2314C13.3146 15.8948 14.1468 16.7345 14.7697 17.5693C15.4019 18.4167 15.7836 19.2131 15.7836 19.798V19.8054L15.784 19.8128C15.8092 20.2386 15.6506 20.6604 15.3355 20.9858C15.0212 21.3103 14.5763 21.5122 14.0951 21.542C13.5866 21.5393 13.1554 21.2542 12.8349 20.9361C12.6763 20.7788 12.5521 20.6203 12.4673 20.5003C12.425 20.4405 12.393 20.391 12.3719 20.3568C12.3614 20.3397 12.3537 20.3267 12.3489 20.3184L12.3479 20.3166L12.3422 20.3061C12.2783 20.1891 12.1817 20.0939 12.0661 20.0288C11.9508 19.9639 11.8198 19.9307 11.6875 19.9313ZM11.6875 19.9313C11.6877 19.9313 11.688 19.9313 11.6882 19.9313L11.6882 20.1813L11.6868 19.9313C11.687 19.9313 11.6873 19.9313 11.6875 19.9313ZM13.4335 14.1727L13.4327 14.1721C12.9455 13.785 12.326 13.5742 11.6879 13.5742C11.0499 13.5742 10.4304 13.785 9.94322 14.1721L9.94322 14.1721L9.94236 14.1727C9.23958 14.7361 8.29432 15.6242 7.52214 16.6204C6.75904 17.6049 6.12916 18.7402 6.12713 19.7929C6.09572 20.5984 6.41274 21.3785 7.0017 21.964C7.59118 22.5501 8.40518 22.8944 9.26431 22.928L9.27198 22.9283L9.27965 22.9281C9.83606 22.9157 10.3757 22.7635 10.8418 22.4912C10.7895 22.7181 10.7166 22.8856 10.6194 23.007C10.4689 23.1951 10.2241 23.3144 9.75689 23.3144H8.79124C8.60348 23.3144 8.41955 23.3826 8.2808 23.51C8.14133 23.638 8.05842 23.8164 8.05842 24.0075C8.05842 24.1986 8.14133 24.377 8.2808 24.505C8.41955 24.6323 8.60348 24.7006 8.79124 24.7006H14.5851C14.7729 24.7006 14.9568 24.6323 15.0956 24.505C15.2351 24.377 15.318 24.1986 15.318 24.0075C15.318 23.8164 15.2351 23.638 15.0956 23.51C14.9568 23.3826 14.7729 23.3144 14.5851 23.3144H13.6195C13.1526 23.3144 12.9077 23.1947 12.7571 23.0063C12.6599 22.8848 12.5871 22.7176 12.5348 22.4914C13.0009 22.7635 13.5404 22.9157 14.0967 22.9281L14.1044 22.9283L14.1121 22.928C14.9712 22.8944 15.7852 22.5501 16.3747 21.964C16.9636 21.3785 17.2807 20.5984 17.2492 19.7929C17.2472 18.74 16.6173 17.6045 15.8542 16.62C15.0819 15.6238 14.1365 14.7359 13.4335 14.1727Z" fill="white" stroke="white" stroke-width="0.5"/>
<path d="M28.9973 2.78183L20.9411 0.308012C19.1628 -0.233564 17.2431 -0.0561274 15.5942 0.802209C13.9454 1.66055 12.6989 3.13131 12.1226 4.8986L11.8562 5.66228H7.08425C5.20608 5.66453 3.40548 6.41163 2.07741 7.73969C0.749347 9.06776 0.00224976 10.8684 0 12.7465L0 26.915C0.00224976 28.7932 0.749347 30.5938 2.07741 31.9218C3.40548 33.2499 5.20608 33.997 7.08425 33.9993H15.5854C16.6587 33.9955 17.7169 33.7467 18.6794 33.2718C19.642 32.7969 20.4834 32.1085 21.1394 31.2591C21.4627 31.306 21.7889 31.3306 22.1156 31.3327C23.637 31.3339 25.118 30.8429 26.3374 29.9331C27.5567 29.0232 28.4491 27.7433 28.8811 26.2845L33.721 11.5507C34.2381 9.76165 34.033 7.84117 33.1498 6.20166C32.2666 4.56214 30.7757 3.33432 28.9973 2.78183ZM15.5854 31.1656H7.08425C5.95694 31.1656 4.87579 30.7177 4.07866 29.9206C3.28153 29.1235 2.8337 28.0423 2.8337 26.915V12.7465C2.8337 11.6192 3.28153 10.5381 4.07866 9.74094C4.87579 8.9438 5.95694 8.49598 7.08425 8.49598H15.5854C16.7127 8.49598 17.7938 8.9438 18.591 9.74094C19.3881 10.5381 19.8359 11.6192 19.8359 12.7465V26.915C19.8359 28.0423 19.3881 29.1235 18.591 29.9206C17.7938 30.7177 16.7127 31.1656 15.5854 31.1656ZM31.0106 10.7105L26.1763 25.4457C25.9361 26.2609 25.4564 26.985 24.7995 27.5242C24.1426 28.0633 23.3389 28.3926 22.4925 28.4693C22.6088 27.9593 22.6682 27.4381 22.6696 26.915V12.7465C22.6674 10.8684 21.9203 9.06776 20.5922 7.73969C19.2641 6.41163 17.4635 5.66453 15.5854 5.66228H14.867C15.2327 4.63163 15.9816 3.7816 16.958 3.28894C17.9344 2.79627 19.063 2.69888 20.1094 3.01703L28.1656 5.49084C29.2267 5.81828 30.1179 6.54719 30.6494 7.52222C31.1808 8.49725 31.3104 9.6413 31.0106 10.7105Z" fill="white"/>
</svg>
