<svg width="34" height="34" viewBox="0 0 34 34" fill="none" xmlns="http://www.w3.org/2000/svg">
<g clip-path="url(#clip0_2529_6762)">
<path d="M28.25 11.25C27.5596 11.25 27 11.8096 27 12.5C27 13.1904 27.5596 13.75 28.25 13.75C28.9392 13.75 29.5 14.3108 29.5 15C29.5 15.6893 28.9392 16.25 28.25 16.25C27.5596 16.25 27 16.8096 27 17.5C27 18.1904 27.5596 18.75 28.25 18.75C30.3177 18.75 32 17.0678 32 15C32 12.9323 30.3177 11.25 28.25 11.25Z" fill="white"/>
<path d="M21.1863 0.000518077C20.1051 0.0186431 19.0841 0.503205 18.3853 1.33002L13.5444 7.05683C13.3064 7.33839 12.9584 7.49989 12.5898 7.49989H5C2.243 7.49989 0 9.74289 0 12.4999V17.4999C0 20.2569 2.243 22.4999 5 22.4999H12.5898C12.9584 22.4999 13.3064 22.6614 13.5444 22.943L18.3853 28.6698C19.0841 29.4966 20.1051 29.9812 21.1863 29.9993C21.2074 29.9997 21.2283 29.9999 21.2494 29.9999C23.3366 29.9999 25 28.259 25 26.2027V3.79714C25 1.72746 23.3106 -0.0346694 21.1863 0.000518077ZM22.5 26.2028C22.5 26.8912 21.9396 27.5108 21.2282 27.4998C20.8681 27.4937 20.5278 27.332 20.2946 27.056L15.4536 21.3291C14.7396 20.4844 13.6958 20 12.5898 20H5C3.6215 20 2.5 18.8785 2.5 17.5V12.5C2.5 11.1215 3.6215 9.99995 5 9.99995H12.5898C13.6958 9.99995 14.7396 9.51552 15.4537 8.67077L20.2946 2.94389C20.5278 2.66789 20.8682 2.50621 21.2283 2.50014C21.9294 2.48833 22.5 3.09927 22.5 3.79714V26.2028Z" fill="white"/>
<path d="M8.75 21C8.05963 21 7.5 21.5596 7.5 22.25V28.25C7.5 28.9392 6.93925 29.5 6.25 29.5C5.56075 29.5 5 28.9392 5 28.25V21.1562C5 20.4659 4.44038 19.9062 3.75 19.9062C3.05963 19.9062 2.5 20.4659 2.5 21.1562V28.25C2.5 30.3177 4.18225 32 6.25 32C8.31775 32 10 30.3177 10 28.25V22.25C10 21.5596 9.44038 21 8.75 21Z" fill="white"/>
<path d="M11.25 12.5C10.5596 12.5 10 13.0596 10 13.75V16.25C10 16.9404 10.5596 17.5 11.25 17.5C11.9404 17.5 12.5 16.9404 12.5 16.25V13.75C12.5 13.0596 11.9404 12.5 11.25 12.5Z" fill="white"/>
</g>
<defs>
<clipPath id="clip0_2529_6762">
<rect width="32" height="32" fill="white"/>
</clipPath>
</defs>
</svg>
