<svg width="27" height="16" viewBox="0 0 27 16" fill="none" xmlns="http://www.w3.org/2000/svg">
<path fill-rule="evenodd" clip-rule="evenodd" d="M1.97938 7.87981C1.80441 7.87981 1.6586 7.81992 1.54195 7.70016C1.4253 7.58039 1.36698 7.43068 1.36698 7.25104C1.36698 7.07887 1.4253 6.93665 1.54195 6.82437C1.6586 6.7046 1.80441 6.64472 1.97938 6.64472H5.78504C5.97459 6.64472 6.13863 6.70835 6.27715 6.8356C6.42296 6.95536 6.49587 7.11256 6.49587 7.30718C6.49587 7.40449 6.474 7.50554 6.43025 7.61033L3.55414 14.1338C3.54963 14.1457 3.54489 14.1574 3.53993 14.1689C3.53923 14.1704 3.53854 14.172 3.53784 14.1736C3.48666 14.2894 3.4119 14.3809 3.31355 14.4482C3.20419 14.5231 3.0839 14.5605 2.95267 14.5605C2.7704 14.5605 2.61001 14.4969 2.47149 14.3696C2.34026 14.2424 2.27465 14.0889 2.27465 13.9093C2.27465 13.8177 2.29137 13.7289 2.3248 13.643C2.32961 13.6306 2.33476 13.6184 2.34026 13.6061L4.8883 7.87981H1.97938ZM2.7609 9.28332L1.0991 13.018C1.09864 13.019 1.09818 13.02 1.09772 13.021C0.973916 13.2976 0.907672 13.5979 0.907672 13.9093C0.907672 14.4886 1.13799 15.0071 1.53289 15.39L1.54628 15.403L1.56 15.4156C1.94369 15.7681 2.4268 15.964 2.95267 15.964C3.35422 15.964 3.73827 15.8443 4.07181 15.616C4.41811 15.379 4.66344 15.0523 4.81091 14.6867L7.68127 8.17622L7.6867 8.16321C7.79101 7.91332 7.86284 7.62433 7.86284 7.30718C7.86284 6.70671 7.61758 6.1543 7.16103 5.7647C6.77128 5.41863 6.29154 5.24121 5.78504 5.24121H1.97938C1.47306 5.24121 0.978377 5.42675 0.590879 5.81617C0.194683 6.2061 0 6.71935 0 7.25104C0 7.77786 0.185587 8.29241 0.57535 8.69259C0.965114 9.09277 1.46627 9.28332 1.97938 9.28332H2.7609Z" fill="white"/>
<path fill-rule="evenodd" clip-rule="evenodd" d="M21.1161 7.87981C20.9411 7.87981 20.7953 7.81992 20.6787 7.70016C20.562 7.58039 20.5037 7.43068 20.5037 7.25104C20.5037 7.07887 20.562 6.93665 20.6787 6.82437C20.7953 6.7046 20.9411 6.64472 21.1161 6.64472H24.9218C25.1113 6.64472 25.2753 6.70835 25.4139 6.8356C25.5597 6.95536 25.6326 7.11256 25.6326 7.30718C25.6326 7.40449 25.6107 7.50554 25.567 7.61033L22.6909 14.1338C22.6863 14.1457 22.6816 14.1574 22.6766 14.1689C22.676 14.1704 22.6753 14.172 22.6746 14.1736C22.6234 14.2894 22.5486 14.3809 22.4503 14.4482C22.3409 14.5231 22.2206 14.5605 22.0894 14.5605C21.9071 14.5605 21.7467 14.4969 21.6082 14.3696C21.477 14.2424 21.4114 14.0889 21.4114 13.9093C21.4114 13.8177 21.4281 13.7289 21.4615 13.643C21.4663 13.6306 21.4715 13.6184 21.477 13.6061L24.025 7.87981H21.1161ZM21.8976 9.28332L20.2358 13.018C20.2354 13.019 20.2349 13.02 20.2344 13.021C20.1106 13.2976 20.0444 13.5979 20.0444 13.9093C20.0444 14.4886 20.2747 15.0071 20.6696 15.39L20.683 15.403L20.6967 15.4156C21.0804 15.7681 21.5635 15.964 22.0894 15.964C22.4909 15.964 22.875 15.8443 23.2085 15.616C23.5548 15.379 23.8002 15.0523 23.9476 14.6867L26.818 8.17622L26.8234 8.16321C26.9277 7.91332 26.9996 7.62433 26.9996 7.30718C26.9996 6.70671 26.7543 6.1543 26.2977 5.7647C25.908 5.41863 25.4283 5.24121 24.9218 5.24121H21.1161C20.6098 5.24121 20.1151 5.42675 19.7276 5.81617C19.3314 6.2061 19.1367 6.71935 19.1367 7.25104C19.1367 7.77786 19.3223 8.29241 19.7121 8.69259C20.1018 9.09277 20.603 9.28332 21.1161 9.28332H21.8976Z" fill="white"/>
<path fill-rule="evenodd" clip-rule="evenodd" d="M17.5362 3.01384L12.7427 13.8864C12.6577 14.1109 12.524 14.2856 12.3417 14.4103C12.1595 14.5351 11.959 14.5975 11.7403 14.5975C11.4365 14.5975 11.1692 14.4914 10.9383 14.2793C10.7196 14.0673 10.6102 13.8115 10.6102 13.5121C10.6102 13.3374 10.6467 13.169 10.7196 13.0068L14.9663 3.46296H10.1181C9.8265 3.46296 9.58348 3.36316 9.38907 3.16355C9.19465 2.96394 9.09744 2.71443 9.09744 2.41501C9.09744 2.12807 9.19465 1.89104 9.38907 1.7039C9.58348 1.50429 9.8265 1.40449 10.1181 1.40449H16.4609C16.7768 1.40449 17.0502 1.51053 17.2811 1.72261C17.5241 1.92222 17.6456 2.18421 17.6456 2.50858C17.6456 2.67076 17.6091 2.83918 17.5362 3.01384ZM18.1649 0.65155C17.683 0.220797 17.0936 0.000976562 16.4609 0.000976562H10.1181C9.49531 0.000976562 8.90321 0.226385 8.438 0.695663C7.96402 1.16037 7.73047 1.76868 7.73047 2.41501C7.73047 3.0616 7.95494 3.67595 8.42247 4.15598C8.89 4.636 9.48836 4.86647 10.1181 4.86647H12.8389L9.47843 12.4187C9.47797 12.4197 9.47752 12.4207 9.47706 12.4217C9.32409 12.7631 9.24325 13.1308 9.24325 13.5121C9.24325 14.2112 9.51732 14.8319 9.99971 15.2997L10.0131 15.3127L10.0268 15.3253C10.5028 15.7626 11.0929 16.001 11.7403 16.001C12.2293 16.001 12.6936 15.8563 13.1 15.5781C13.5203 15.2904 13.8195 14.8925 14.0006 14.4367L18.7873 3.57973L18.7927 3.56671C18.9262 3.24696 19.0126 2.8906 19.0126 2.50858C19.0126 1.77838 18.7185 1.12069 18.1649 0.65155Z" fill="white"/>
</svg>
