<svg width="16" height="16" viewBox="0 0 16 16" fill="none" xmlns="http://www.w3.org/2000/svg">
<g clip-path="url(#clip0_1770_236383)">
<path d="M8.00261 -0.000976562C3.57752 -0.000976562 -0.00976562 3.58631 -0.00976562 8.0114C-0.00976562 12.4365 3.57752 16.0237 8.00261 16.0237C12.4277 16.0237 16.015 12.4365 16.015 8.0114C16.015 3.58631 12.4277 -0.000976562 8.00261 -0.000976562ZM12.9684 5.89249L13.4858 4.21984C14.1829 5.23031 14.5856 6.41452 14.6491 7.64049L13.2211 6.63449C12.985 6.46802 12.883 6.16846 12.9684 5.89249ZM9.73376 1.56915H9.72842L8.39508 2.53981C8.16136 2.70971 7.8448 2.70971 7.61108 2.53981L6.27773 1.56915C7.40839 1.2554 8.60311 1.2554 9.73376 1.56915ZM2.51508 4.22049L3.03242 5.89249C3.11786 6.16846 3.01583 6.46802 2.77977 6.63449L1.35177 7.64049C1.41523 6.41474 1.81798 5.23071 2.51508 4.22049ZM2.67177 11.9898L4.50311 11.9958C4.7922 11.9964 5.04798 12.1833 5.13645 12.4585L5.71245 14.2538C4.50173 13.8082 3.44573 13.022 2.67177 11.9898ZM10.2891 14.2538L10.8644 12.4585C10.9528 12.1835 11.2082 11.9967 11.4971 11.9958L13.3291 11.9898C12.5555 13.0221 11.4997 13.8084 10.2891 14.2538ZM14.1131 10.6538L11.4931 10.6625C10.6256 10.6636 9.85833 11.2253 9.59508 12.0518L8.77173 14.6185C8.25955 14.6834 7.74123 14.6834 7.22908 14.6185L6.40573 12.0512C6.14217 11.2246 5.37461 10.6632 4.50708 10.6625L1.88773 10.6545C1.68614 10.1894 1.53873 9.70262 1.44839 9.20384L3.54773 7.72449C4.25736 7.22643 4.56402 6.32699 4.30639 5.49915L3.54973 3.05115C3.93211 2.70368 4.35361 2.40187 4.80573 2.15181L6.82439 3.61846C7.52508 4.12965 8.4757 4.12965 9.17639 3.61846L11.195 2.15181C11.6471 2.40202 12.0685 2.70381 12.451 3.05115L11.6944 5.49915C11.4368 6.32696 11.7434 7.2264 12.453 7.72449L14.5524 9.20384C14.4621 9.70243 14.3147 10.189 14.1131 10.6538Z" fill="white"/>
<path d="M10.2581 6.14985L8.98009 5.22184C8.39668 4.79584 7.60481 4.79584 7.02143 5.22184L5.74343 6.14985C5.15665 6.57382 4.9118 7.32885 5.13808 8.0165L5.62608 9.51851C5.84912 10.2047 6.48924 10.6687 7.21074 10.6672H8.79075C9.51297 10.6672 10.1531 10.2021 10.3761 9.51516L10.8634 8.01316C11.0883 7.3265 10.8436 6.57322 10.2581 6.14985ZM9.5954 7.60116L9.10806 9.10316C9.06353 9.24076 8.93534 9.33391 8.79071 9.33382H7.21071C7.06634 9.33363 6.93852 9.24051 6.89406 9.10316L6.40609 7.6005C6.36118 7.46291 6.41021 7.31207 6.52743 7.22716L7.80478 6.3005C7.92165 6.21556 8.07993 6.21556 8.19678 6.3005L9.47478 7.2285C9.5914 7.3135 9.64012 7.46391 9.5954 7.60116Z" fill="white"/>
</g>
<defs>
<clipPath id="clip0_1770_236383">
<rect width="16" height="16" fill="white" transform="translate(0 0.000976562)"/>
</clipPath>
</defs>
</svg>
